<svg width="60" height="60" viewBox="0 0 60 60" fill="none" xmlns="http://www.w3.org/2000/svg">
<path d="M30 60C46.5685 60 60 46.5685 60 30C60 13.4315 46.5685 0 30 0C13.4315 0 0 13.4315 0 30C0 46.5685 13.4315 60 30 60Z" fill="#B8BAC0"/>
<path d="M29.9999 45.0087C26.5069 45.0087 23.3378 43.5098 20.9996 41.0872C20.9978 42.5391 20.9451 44.6346 20.5601 46.1636C20.8126 46.3179 21.0086 46.5713 21.0468 46.8866C21.5458 50.9471 25.3944 54.0087 29.9999 54.0087C34.6044 54.0087 38.4531 50.9467 38.9531 46.8866C38.9918 46.5709 39.1836 46.3179 39.4399 46.1641C39.0549 44.6349 39.0021 42.5392 39.0003 41.0872C36.6621 43.5098 33.4929 45.0087 29.9999 45.0087Z" fill="white"/>
<path d="M38.8049 41.2717C36.4863 43.5813 33.3997 45.0087 29.9999 45.0087C26.5069 45.0087 23.3378 43.5098 20.9996 41.0872C20.9978 42.5391 20.9451 44.6346 20.5601 46.1636C20.8126 46.3179 21.0086 46.5713 21.0468 46.8866C21.2674 48.6814 22.1441 50.2796 23.4497 51.5058C29.4707 50.6581 36.3046 44.7127 38.8049 41.2717Z" fill="#D7DBE0"/>
<path d="M38.9998 20.0087H21.9998C19.2429 20.0087 16.9998 22.2518 16.9998 25.0087V31.0087C16.9998 38.7284 22.8318 45.0087 29.9998 45.0087C37.1678 45.0087 42.9998 38.7284 42.9998 31.0087V24.0087C42.9998 21.8032 41.2058 20.0087 38.9998 20.0087Z" fill="white"/>
<path d="M37 9.00876H24C22.1191 9.00876 20.5381 10.3135 20.1122 12.0649C16.6699 12.5025 14 15.4498 14 19.0088V24.0088C14 26.5859 15.094 28.9901 17 30.6988V25.0088C17 22.2519 19.2431 20.0088 22 20.0088H39C41.206 20.0088 43 21.8031 43 24.0088V30.6976C44.9064 28.9893 46 26.5853 46 24.0088V18.0088C46 13.0464 41.9629 9.00876 37 9.00876Z" fill="#5C546A"/>
<path d="M7.70386 50.068C13.1951 56.1648 21.1487 60 29.9999 60C38.851 60 46.8046 56.1648 52.2959 50.068C51.3384 48.7735 49.9881 47.7217 48.2519 47.2356C48.2119 47.2243 48.1717 47.2156 48.1307 47.2097L40.1484 46.012C40.0995 46.0046 39.995 46.0007 39.9452 46.0007C39.4404 46.0007 39.0146 46.3772 38.953 46.8786C38.453 50.9386 34.6044 54.0007 29.9999 54.0007C25.3944 54.0007 21.5457 50.9392 21.0467 46.8786C20.9842 46.3625 20.5194 45.9743 20.0291 46.0011C19.9705 45.9977 19.9129 46.0026 19.8514 46.0118L11.869 47.2096C11.828 47.2155 11.788 47.2242 11.7479 47.2355C10.0116 47.7218 8.66136 48.7735 7.70386 50.068Z" fill="#5C546A"/>
</svg>
