<svg width="186" height="82" viewBox="0 0 186 82" fill="none" xmlns="http://www.w3.org/2000/svg">
<path d="M0.0946747 45.8024C0.219387 45.2767 0.296738 44.7763 0.329889 44.3027C0.361462 43.8291 0.438823 43.3287 0.565114 42.803C1.2534 39.0648 2.22268 35.2351 3.47453 31.3122C4.72639 27.3908 6.16452 23.85 7.79209 20.6911C8.1678 20.0076 8.63666 19.665 9.20023 19.665C9.63751 19.665 10.1537 19.7439 10.7489 19.9018C11.3424 20.0597 11.9218 20.257 12.4854 20.4938C13.0489 20.7306 13.5651 20.9816 14.034 21.2436C14.5029 21.5073 14.8928 21.7441 15.2069 21.954C15.7074 22.2698 15.8005 22.6518 15.4879 23.0985C15.1738 23.5469 14.9559 23.981 14.8312 24.4009C14.0166 26.139 13.2494 27.9812 12.5311 29.9293C11.8113 31.8773 11.1372 33.8253 10.5137 35.7734C9.88693 37.7214 9.34073 39.6031 8.8703 41.4201C8.39987 43.2372 8.00995 44.8553 7.69738 46.276C7.57109 46.8554 7.6658 47.1711 7.97837 47.2232C8.29094 47.2769 8.63509 47.1443 9.0108 46.8285C10.4489 45.6177 11.7939 44.1828 13.0474 42.5252C14.2992 40.8676 15.4406 39.1438 16.473 37.352C17.5054 35.5634 18.4447 33.7985 19.2893 32.0604C20.1338 30.3224 20.8695 28.7706 21.4946 27.4019C21.6825 27.0862 21.9319 26.8762 22.2461 26.7704C22.5586 26.6662 22.8712 26.6662 23.1853 26.7704C23.4979 26.8762 23.7331 27.0609 23.8894 27.323C24.0441 27.5866 24.0615 27.8755 23.9368 28.1912C23.4979 29.0863 22.9343 30.2718 22.2476 31.7447C21.5578 33.2191 20.7463 34.812 19.8071 36.5232C18.8678 38.2345 17.8354 39.9583 16.7098 41.6964C15.5826 43.4329 14.3939 45.0005 13.1421 46.3944C11.8902 47.7899 10.591 48.9344 9.24601 49.8295C7.89944 50.7246 6.57023 51.1714 5.25681 51.1714C4.44223 51.1714 3.70817 51.0135 3.05146 50.6978C2.39475 50.382 1.83118 49.9606 1.36232 49.4349C0.893468 48.9092 0.547741 48.3298 0.329889 47.6984C0.108881 47.0653 0.0315294 46.4339 0.0946747 45.8024ZM15.2069 5.44784C16.0831 3.97498 16.8329 3.23618 17.4596 3.23618C17.9601 3.28985 18.7888 3.52664 19.9476 3.94656C21.1047 4.36806 22.1213 4.84165 22.9991 5.36733C24.3125 6.10455 24.4372 7.18434 23.3748 8.60511C22.9359 9.18447 22.3266 9.97536 21.5436 10.9746C20.7606 11.9755 19.9318 12.9495 19.0556 13.8967C18.1779 14.8439 17.3191 15.6742 16.4746 16.3846C15.63 17.095 14.9259 17.4502 14.3624 17.4502C13.0489 17.5039 12.2817 16.9892 12.0623 15.911C11.8429 14.8328 11.9218 13.5952 12.2975 12.1997C12.6732 10.8057 13.1736 9.44967 13.7988 8.13309C14.4239 6.81809 14.8928 5.92301 15.2069 5.44784Z" fill="#303030"/>
<path d="M15.6758 47.7031C15.6758 45.4962 15.911 42.7904 16.3799 39.5826C16.8487 36.3764 17.4739 33.0124 18.2569 29.4904C19.0383 25.9685 19.9144 22.4734 20.8853 19.0036C21.8546 15.5337 22.8396 12.4191 23.8421 9.65966C24.8429 6.9002 25.798 4.65381 26.7057 2.91889C27.6119 1.18397 28.4106 0.317307 29.0989 0.317307C29.5362 0.317307 30.2261 0.435704 31.1638 0.672499C32.1031 0.909294 33.0092 1.18555 33.8853 1.50128C34.7615 1.81701 35.5429 2.15957 36.2328 2.52739C36.9211 2.89679 37.2652 3.23778 37.2652 3.5535C37.2652 3.71137 37.2021 3.84397 37.0773 3.94816C36.8263 4.21179 36.6085 4.43596 36.4206 4.61908C36.2328 4.80378 36.0765 5.02795 35.9518 5.29C35.0741 6.60658 34.1521 8.38412 33.1829 10.621C32.212 12.8595 31.2727 15.3333 30.3666 18.0438C29.4589 20.7559 28.5827 23.599 27.7381 26.5731C26.8936 29.5488 26.1564 32.4299 25.5328 35.2209C26.8462 31.6405 28.2544 28.1012 29.7572 24.5998C31.2585 21.0984 32.7914 17.848 34.3574 14.847C35.6076 12.4254 36.97 10.1885 38.4413 8.1347C39.911 6.08089 41.3665 4.37124 42.8062 3.00098C43.8702 2.00171 45.0589 1.25186 46.3739 0.749851C47.6873 0.249424 49.0023 0 50.3158 0C52.63 0 54.4455 0.539891 55.7605 1.61652C57.0739 2.69472 57.9342 4.08866 58.3415 5.79516C58.7472 7.50482 58.7472 9.42286 58.3415 11.5524C57.9342 13.682 57.1828 15.799 56.0888 17.9017C54.9932 20.0044 53.6151 21.9761 51.9591 23.8153C50.3 25.6544 48.4388 27.1525 46.3739 28.3096C47.4379 28.9411 48.3756 29.6909 49.1902 30.5576C50.0032 31.4243 50.5983 32.3572 50.974 33.3565C51.787 35.4072 51.9749 37.7325 51.5376 40.3356C51.0988 42.9388 50.0979 45.3683 48.5335 47.6289C46.9691 49.8895 44.8726 51.7949 42.2442 53.3467C39.6158 54.897 36.5185 55.6721 32.9508 55.6721C31.5742 55.6721 30.2434 55.4558 28.9616 55.0264C27.6782 54.5954 26.5984 53.9229 25.7238 53.0089C25.3481 52.6853 25.1129 52.3001 25.0197 51.847C24.9266 51.3956 24.9266 50.9993 25.0197 50.6567C25.1129 50.3142 25.2692 50.0774 25.4886 49.9464C25.7064 49.8153 25.9732 49.9069 26.2858 50.2226C26.9109 50.9078 27.615 51.3671 28.398 51.6039C29.1794 51.8407 29.9467 51.9591 30.6981 51.9591C32.4488 51.9591 34.0921 51.4192 35.6266 50.3426C37.1594 49.266 38.5044 47.9383 39.6631 46.3629C40.8203 44.7858 41.7422 43.0525 42.4321 41.1597C43.1203 39.2669 43.5418 37.5336 43.6997 35.9565C43.856 34.3795 43.6839 33.0534 43.1835 31.9752C42.6815 30.8986 41.8069 30.3587 40.5551 30.3587C39.7405 30.5166 38.8659 30.5829 37.9266 30.556C36.9874 30.5308 36.1744 30.3855 35.4861 30.1219C34.9841 29.8598 34.5468 29.4399 34.1727 28.8606C33.7969 28.2828 33.6706 27.8629 33.7969 27.5992C33.9848 27.1777 34.5484 26.851 35.4861 26.6126C36.4254 26.3758 37.2999 26.2574 38.1145 26.2574C39.7405 25.4697 41.2734 24.393 42.7146 23.0259C44.1528 21.6588 45.4362 20.1481 46.5634 18.4921C47.6889 16.8361 48.5966 15.1549 49.2849 13.4468C49.9732 11.7387 50.3947 10.2011 50.5526 8.83403C50.7073 7.46693 50.5368 6.33663 50.0363 5.44313C49.5343 4.54962 48.6598 4.10287 47.4079 4.10287C45.9682 4.10287 44.3406 5.12898 42.5268 7.18278C40.7114 9.23658 38.8659 12.0797 36.9889 15.7121C35.6739 18.2916 34.3747 21.0558 33.0929 24.0047C31.8094 26.9536 30.5734 29.9404 29.3847 32.9682C28.1944 35.996 27.1162 38.9828 26.1469 41.9317C25.176 44.8805 24.3472 47.6179 23.659 50.1453C23.4711 50.8304 22.876 51.1714 21.8751 51.1714C21.3115 51.1714 20.669 51.0672 19.9508 50.8572C19.2309 50.6473 18.5568 50.3852 17.9333 50.0679C17.3065 49.7522 16.7745 49.3844 16.3373 48.9629C15.8952 48.5461 15.6758 48.1246 15.6758 47.7031Z" fill="#303030"/>
<path d="M67.9617 51.173C65.1454 51.173 62.8453 50.712 61.0615 49.7917C59.2776 48.8713 57.9484 47.6731 57.0723 46.1987C56.1946 44.7258 55.6957 43.0272 55.571 41.1044C55.4447 39.1832 55.6483 37.2352 56.1803 35.2603C56.7108 33.2855 57.478 31.339 58.4804 29.4162C59.4813 27.495 60.67 25.7964 62.0481 24.322C63.4231 22.8491 64.9102 21.6509 66.5062 20.729C68.1022 19.8087 69.744 19.3477 71.4347 19.3477C72.3092 19.3477 73.3259 19.5719 74.4846 20.0186C75.6417 20.467 76.7215 21.059 77.724 21.7962C78.7248 22.5334 79.5694 23.3495 80.2577 24.2446C80.9459 25.1397 81.2901 26.0095 81.2901 26.851C81.2901 28.6948 80.7265 30.4045 79.6009 31.9847C78.4738 33.5633 77.0341 34.9462 75.2834 36.1302C73.5311 37.3141 71.6367 38.2361 69.605 38.8943C67.5702 39.5526 65.6458 39.881 63.832 39.881C63.7057 41.9869 64.0672 43.7771 64.9118 45.2515C65.7563 46.7259 67.2734 47.4632 69.4645 47.4632C71.3415 47.4632 73.1728 46.7528 74.9566 45.3304C76.7405 43.9097 78.398 42.159 79.9325 40.0783C81.4653 37.9993 82.8419 35.8018 84.0622 33.4844C85.2824 31.1685 86.2991 29.1147 87.1121 27.3245C87.2368 27.0088 87.472 26.8115 87.8162 26.7326C88.1587 26.6536 88.4729 26.6678 88.7555 26.772C89.038 26.8778 89.2717 27.0625 89.4595 27.3245C89.6474 27.5882 89.6474 27.8771 89.4595 28.1928C88.5818 30.1408 87.472 32.4314 86.127 35.063C84.7805 37.6962 83.2002 40.2093 81.3864 42.6041C79.571 45.0005 77.5377 47.0259 75.285 48.685C73.0323 50.3442 70.5901 51.173 67.9617 51.173ZM71.6225 24.0852C70.6833 24.6646 69.7929 25.4665 68.9468 26.4942C68.1022 27.5203 67.335 28.6664 66.6467 29.9293C65.9568 31.1922 65.379 32.5356 64.9102 33.9564C64.4413 35.3772 64.113 36.7474 63.9251 38.0624C65.1754 38.0624 66.443 37.6946 67.7265 36.9574C69.0083 36.2201 70.167 35.2603 71.1995 34.0748C72.2319 32.8908 73.0607 31.5348 73.6874 30.0082C74.3125 28.4817 74.6267 26.9283 74.6267 25.3497C74.6267 24.5083 74.2983 23.9684 73.6416 23.7316C72.9833 23.4932 72.3108 23.6116 71.6225 24.0852Z" fill="#303030"/>
<path d="M94.1512 51.173C91.335 51.173 89.0349 50.712 87.251 49.7917C85.4672 48.8713 84.138 47.6731 83.2618 46.1987C82.3841 44.7258 81.8853 43.0272 81.7606 41.1044C81.6343 39.1832 81.8379 37.2352 82.3715 35.2603C82.9019 33.2855 83.6691 31.339 84.6716 29.4162C85.6724 27.495 86.8611 25.7964 88.2393 24.322C89.6143 22.8491 91.1029 21.6509 92.6973 20.729C94.2933 19.8087 95.9351 19.3477 97.6258 19.3477C98.502 19.3477 99.5186 19.5719 100.677 20.0186C101.834 20.467 102.914 21.059 103.915 21.7962C104.916 22.5334 105.761 23.3495 106.449 24.2446C107.137 25.1397 107.481 26.0095 107.481 26.851C107.481 28.6948 106.918 30.4045 105.792 31.9847C104.665 33.5633 103.225 34.9462 101.475 36.1302C99.7222 37.3141 97.8279 38.2361 95.7962 38.8943C93.7613 39.5526 91.837 39.881 90.0231 39.881C89.8968 41.9869 90.2583 43.7771 91.1029 45.2515C91.9475 46.7259 93.4645 47.4632 95.6557 47.4632C97.5327 47.4632 99.3639 46.7528 101.148 45.3304C102.932 43.9097 104.589 42.159 106.124 40.0783C107.656 37.9993 109.033 35.8018 110.253 33.4844C111.474 31.1685 112.49 29.1147 113.305 27.3245C113.43 27.0088 113.665 26.8115 114.009 26.7326C114.351 26.6536 114.666 26.6678 114.948 26.772C115.229 26.8778 115.464 27.0625 115.652 27.3245C115.84 27.5882 115.84 27.8771 115.652 28.1928C114.775 30.1408 113.665 32.4314 112.32 35.063C110.973 37.6962 109.393 40.2093 107.579 42.6041C105.764 45.0005 103.73 47.0259 101.478 48.685C99.2202 50.3426 96.7797 51.173 94.1512 51.173ZM97.8121 24.0852C96.8728 24.6646 95.9825 25.4665 95.1363 26.4942C94.2917 27.5203 93.5245 28.6664 92.8363 29.9293C92.1464 31.1922 91.5686 32.5356 91.0998 33.9564C90.6309 35.3772 90.3025 36.7474 90.1147 38.0624C91.365 38.0624 92.6326 37.6946 93.916 36.9574C95.1979 36.2201 96.3566 35.2603 97.389 34.0748C98.4215 32.8908 99.2502 31.5348 99.877 30.0082C100.502 28.4817 100.816 26.9283 100.816 25.3497C100.816 24.5083 100.488 23.9684 99.8312 23.7316C99.1729 23.4932 98.4988 23.6116 97.8121 24.0852Z" fill="#303030"/>
<path d="M107.761 47.3811C107.948 45.3273 108.291 43.1298 108.793 40.7871C109.293 38.4444 109.887 36.1017 110.577 33.759C111.265 31.4163 112.032 29.1273 112.877 26.8888C113.722 24.6519 114.645 22.5855 115.646 20.6895C115.958 20.006 116.397 19.6634 116.961 19.6634C117.398 19.6634 117.914 19.7423 118.51 19.9002C119.103 20.0581 119.698 20.2554 120.293 20.4922C120.887 20.729 121.421 20.98 121.889 21.242C122.358 21.5057 122.748 21.7425 123.062 21.9524C123.563 22.2682 123.656 22.6502 123.343 23.0969C123.029 23.5453 122.78 23.9794 122.592 24.3993C121.714 26.2953 120.885 28.3222 120.104 30.4802C119.321 32.6398 118.617 34.7978 117.992 36.9558C118.805 35.4292 119.728 33.8506 120.761 32.2167C121.793 30.586 122.873 29.0058 123.998 27.4792C125.126 25.9527 126.265 24.5572 127.424 23.2943C128.581 22.0314 129.724 21.0037 130.85 20.2144C131.287 19.8465 131.882 19.6618 132.634 19.6618C132.883 19.6618 133.259 19.7155 133.761 19.8197C134.261 19.9255 134.807 20.0707 135.404 20.2538C135.998 20.4385 136.561 20.6485 137.093 20.8853C137.624 21.1221 138.078 21.3983 138.454 21.7141C139.079 22.2413 139.267 22.7007 139.018 23.0954C138.767 23.49 138.391 23.8452 137.89 24.1609C136.263 25.3197 135.058 26.7673 134.277 28.5038C133.494 30.2418 133.041 31.7952 132.916 33.1623C132.853 34.1632 133.009 34.8878 133.385 35.3345C133.761 35.7828 134.198 36.0054 134.7 36.0054C135.701 36.0054 136.672 35.6629 137.609 34.9793C138.549 34.2958 139.423 33.4796 140.238 32.5308C141.051 31.5837 141.801 30.6097 142.491 29.6088C143.179 28.6095 143.742 27.7918 144.18 27.1603C144.429 26.8446 144.727 26.6741 145.072 26.6473C145.414 26.622 145.728 26.6868 146.011 26.8446C146.293 27.0025 146.48 27.214 146.574 27.4761C146.668 27.7397 146.622 28.0286 146.434 28.3443C145.932 29.0815 145.307 29.964 144.557 30.9901C143.806 32.0162 142.975 33.0439 142.069 34.07C141.161 35.0961 140.192 36.0449 139.16 36.9131C138.127 37.7814 137.047 38.3734 135.922 38.6891C135.107 38.9527 134.185 39.0048 133.153 38.847C132.121 38.6891 131.118 38.386 130.149 37.9392C129.178 37.4925 128.333 36.9131 127.615 36.2028C126.895 35.4924 126.472 34.6904 126.347 33.7938C126.221 32.5829 126.441 31.1748 127.004 29.5693C127.568 27.9639 128.193 26.5557 128.881 25.3449C129.069 24.9771 129.116 24.805 129.022 24.8319C128.929 24.8587 128.786 24.9771 128.599 25.1871C127.097 26.7152 125.547 28.649 123.953 30.9917C122.357 33.3344 120.901 35.7181 119.588 38.1382C118.274 40.5598 117.179 42.8756 116.303 45.0873C115.425 47.299 114.926 49.0355 114.801 50.2999C114.801 50.7214 114.691 50.9709 114.473 51.0498C114.254 51.1287 113.987 51.1682 113.676 51.1682C113.112 51.1682 112.485 51.0498 111.799 50.813C111.109 50.5762 110.468 50.2731 109.874 49.9053C109.279 49.5375 108.779 49.1286 108.373 48.6818C107.963 48.2382 107.761 47.8041 107.761 47.3811Z" fill="#303030"/>
</svg>
